# xmcd
#
# Track frame offsets:
#	150
#	12690
#	23594
#	36497
#	48250
#	61050
#	72882
#	84934
#	94372
#	105359
#	117526
#	129885
#
# Disc length: 1838 seconds
#
# Revision: 0
# Processed by: cddbd v1.5.2PL0 Copyright (c) Steve Scherf et al.
# Submitted via: EasyCDDAExtractor 16.0.6.1
#
DISCID=96072c0c
DTITLE=Συλλογικός δίσκος - Το Νέο Κύμα στο ελληνικό τραγούδι 4
DYEAR=1996
DGENRE=Νέο κύμα
TTITLE0=Χωματά Καίτη - Λυπημένα δειλινά [Γ. Σπανός-Ζαχαρίας Παπαντωνίου]
TTITLE1=Ζωγράφος Γιώργος - Αποχωρισμός [Ν. Μαυρουδής-Ά. Δασκαλόπουλος]
TTITLE2=Αρλέτα - Φώναξέ με [Ν. Μαυρουδής-Ά. Δασκαλόπουλος]
TTITLE3=Βιολάρης Μιχάλης - Ήρθες εψές [Γ. Σπανός-Σ. Σκίπης]
TTITLE4=Αστεριάδη Πόπη - Μια γιορτή [Η. Καραγιάννης]
TTITLE5=Ρωμανός Γιώργος - Μαρίνα [Γ. Ρωμανός]
TTITLE6=Σαββόπουλος Διονύσης - Οι παλιοί μας φίλοι [Δ. Σαββόπουλος]
TTITLE7=Αστεριάδη Πόπη - Η μαριονέττα [Ν. Χατζηνικολάου-Μ. Γκόπη]
TTITLE8=Πουλόπουλος Γιάννης - Ήταν το ποτάμι μακρύ [Γ. Πουλόπουλος]
TTITLE9=Χωματά Καίτη - Να διώξω τα σύννεφα [Η. Παπακώστας-Ά. Δασκαλόπουλος]
TTITLE10=Χουλιαράς Νίκος - Το τσιμεντένιο δάσος [Ν. Χουλιαράς]
TTITLE11=Αρλέτα - Το λειβάδι [Ν. Χουλιαράς]
EXTD=
EXTT0=
EXTT1=
EXTT2=
EXTT3=
EXTT4=
EXTT5=
EXTT6=
EXTT7=
EXTT8=
EXTT9=
EXTT10=
EXTT11=
PLAYORDER=
